<?xml version="1.0" encoding="utf-8"?>
<!-- Generator: Adobe Illustrator 27.2.0, SVG Export Plug-In . SVG Version: 6.00 Build 0)  -->
<svg version="1.1" id="Layer_1" xmlns="http://www.w3.org/2000/svg" xmlns:xlink="http://www.w3.org/1999/xlink" x="0px" y="0px"
	 width="800px" height="800px" viewBox="0 0 800 800" style="enable-background:new 0 0 800 800;" xml:space="preserve">
<style type="text/css">
	.st0{fill:#0080FF;}
</style>
<g>
	<path class="st0" d="M610.137,167.403c-15.292,18.294,14.016-87.868,24.902-57.734
		C627.211,129.845,619.292,147.109,610.137,167.403z"/>
	<path class="st0" d="M317.767,150.915c-0.181-8.077-7.571-23.97,3.674-27.379C339.094,123.014,333.916,172.888,317.767,150.915z"/>
	<path class="st0" d="M427.3,178.69c9.335,23.838,7.708,48.926,9.223,73.675C428.399,228.459,431.505,203.049,427.3,178.69z"/>
	<path class="st0" d="M87.617,665.21c9.464-3.586,16.788-16.562,27.657-12.337C110.548,659.529,87.696,680.341,87.617,665.21z"/>
	<path class="st0" d="M694.972,26.608c1.416,17.244-13.729,3.975-13.601-6.333C681.984,10.809,698.394,17.918,694.972,26.608z"/>
	<path class="st0" d="M640.334,712.08c-13.019-1.612-41.487-17.409-14.203-21.398C636.527,687.875,659.527,711.554,640.334,712.08z"
		/>
	<g>
		<path class="st0" d="M584.869,643.134c-0.008,0.032,0.021,0.031,0.045,0.033C584.914,643.168,584.869,643.134,584.869,643.134z"/>
		<path class="st0" d="M540.76,725.34c-0.054-0.005-0.072,0.031-0.08,0.078C540.68,725.419,540.76,725.34,540.76,725.34z"/>
		<path class="st0" d="M191.704,604.522c-0.029-0.01-0.026,0.018-0.029,0.039C191.675,604.561,191.704,604.522,191.704,604.522z"/>
		<path class="st0" d="M604.543,223.343c3.098-6.789,10.928-15.045-3.863-20.986c-6.877-2.762,3.899-11.886,0.713-18.431
			c-7.701,5.298-9.656,13.586-11.434,21.967c6.822,19.306-3.226,35.204-10.634,51.522c-26.659,45.848-31.546,97.656-57.914,141.764
			c-1.093,2.429-2.999,5.007-6.156,4.569c-28.028-4.438-21.466,26.657-34.171,35.755c-6.187-0.159-4.811-7.226-5.006-9.426
			c-1.84-21.161-24.571-23.569-32.227-41.364c-2.642-11.332-23.583-10.554-29.475-20.287c-11.464-8.123-22.06-21.877-37.311-5.663
			c-8.288,1.187-8.058-11.749-17.584-11.571c-4.656-0.819-8.874,7.69-13.823,0.649c-14.14-8.168-11.821,16.272-41.309-8.418
			c-47.795-1.959,22.256,54.107-60.314,57.841c-14.179,10.86-28.583,16.49-32.462,35.587
			c-12.597,48.788-67.374,84.343-57.353,136.599c6.917,21.2-14.703,23.289-14.431,37.768c2.926,8.447,11.13,0.614,15.203,6.359
			c4.192,18.753,26.48-14.212,36.689-13.054c13.425-8.201,35.321,1.325,49.936,5.296c13.111-2.845,19.087,3.713,24.603,14.917
			c20.334,29.42,25.324-17.898,40.837-6.017c27.272,16.532,27.177-33.033,52.787-33.358c2.564-0.216,6.756-6.794,7.486,1.294
			c0.374,4.147,7.67,8.596-0.026,12.646c-13.134,11.137-21.9,34.119-42.531,29.324c-49.166-4.301-56.574,44.936-9.329,55.295
			c12.395-0.548,22.236,5.275,33.244,8.289c5.798,1.587,6.314,3.338,4.507,8.089c-9.552,31.551,30.982,66.239,58.343,46.77
			c16.299-15.022,29.049-38.104,17.058-59.218c-15.165-12.344,6.213-18.485,16.128-11.277c14.938,2.903,32.28-17.861,36.898,6.843
			c10.304,63.835,99.71,47.478,103.727-11.334c5.563-26.01-16.999-48.103-6.114-73.061c12.888-49.468,6.08-69.055-9.997-112.672
			c-8.421-17.109-4.935-39.415-16.99-54.022c-14.562-22.752,1.228-41.969,10.64-61.628c0.73-9.865,2.997-20.743,10.901-27.701
			C578.854,302.404,586.826,261.956,604.543,223.343z"/>
	</g>
</g>
</svg>
