<?xml version="1.0" encoding="utf-8"?>
<!-- Generator: Adobe Illustrator 28.0.0, SVG Export Plug-In . SVG Version: 6.00 Build 0)  -->
<svg version="1.1" id="Layer_1" xmlns="http://www.w3.org/2000/svg" xmlns:xlink="http://www.w3.org/1999/xlink" x="0px" y="0px"
	 width="834.41px" height="55.56px" viewBox="0 0 834.41 55.56" style="enable-background:new 0 0 834.41 55.56;"
	 xml:space="preserve">
<style type="text/css">
	.st0{opacity:0.46;}
	.st1{fill:none;}
	.st2{fill-rule:evenodd;clip-rule:evenodd;fill:#0071BC;}
	.st3{fill:url(#SVGID_1_);}
	.st4{filter:url(#Adobe_OpacityMaskFilter);}
	.st5{fill:url(#SVGID_00000096045050377496332850000016511710632885062825_);}
	.st6{fill:url(#SVGID_00000086661901930790082360000015951164056048259204_);}
	.st7{mask:url(#SVGID_00000016769666413445967840000015784891313651862201_);}
</style>
<g class="st0">
	<rect x="567.83" y="3.68" class="st1" width="266.58" height="49.1"/>
	<path class="st2" d="M622.08,48.55c-0.15,0.17-0.4,0.22-0.7,0.22C621.45,48.49,621.84,48.29,622.08,48.55z"/>
	<path class="st2" d="M611.45,15.24c-0.21,0.15-0.88,0.43-0.81-0.14C611.02,15.04,611.18,15.2,611.45,15.24z"/>
	<path class="st2" d="M610.31,14.49c-0.06,0.27-0.57,0.03-0.81,0.1C609.51,14.24,610.16,14.32,610.31,14.49z"/>
	<path class="st2" d="M607.05,19.56c-0.17,0.18-0.61,0.32-0.82,0.1C606.29,19.39,606.8,19.63,607.05,19.56z"/>
	<path class="st2" d="M605.56,14.24c-0.28,0.31-0.75,0.41-1.4,0.32C604.38,14.19,605.06,14.31,605.56,14.24z"/>
	<path class="st2" d="M601.51,40.42c-0.71,0.03-2.16,0.49-2.67-0.07C599.71,40.7,600.71,40.12,601.51,40.42z"/>
	<path class="st2" d="M599.61,28.96c-0.89,0.7-2.47-0.08-3.61,0.38c-0.16-0.59,1.66-0.08,1.99-0.54c0.27,0.05,0.47,0.16,0.69,0.26
		C598.99,29.01,599.28,28.62,599.61,28.96z"/>
	<path class="st2" d="M588.74,27.22c0.02,0.31-0.06,0.51-0.36,0.47c-0.09-0.11-0.12-0.27-0.1-0.48
		C588.43,27.21,588.59,27.21,588.74,27.22z"/>
	<path class="st2" d="M584.23,31.29c-0.72,0.54-2.35,0.58-3.25,0.15c-0.12,0.08-0.13,0.27-0.35,0.23c-0.54,0.07-1.75-0.16-0.58-0.14
		C581.49,31.16,582.64,31.54,584.23,31.29z"/>
	<path class="st2" d="M583.69,25.28c-0.17,0.18-0.46,0.24-0.82,0.22C582.95,25.2,583.55,25.15,583.69,25.28z"/>
	<path class="st2" d="M582.58,40.97c-0.13,0.27-0.73,0.02-1.05,0.09C581.77,40.9,582.32,40.73,582.58,40.97z"/>
	<path class="st2" d="M582.82,27.29c-0.29,0.31-0.93,0.22-1.29,0.45C581.22,27.26,582.38,27.35,582.82,27.29z"/>
	<path class="st2" d="M582.29,25.6c-0.23,0.37-0.9,0.25-1.4,0.32C581.18,25.63,581.83,25.72,582.29,25.6z"/>
	<path class="st2" d="M581.46,43.82c-0.04,0.41-0.5,0.36-0.83,0.46C580.71,43.9,581.18,43.96,581.46,43.82z"/>
	<path class="st2" d="M580.96,40.93c-0.38,0.34-1.68,0.24-2.32,0.17C579.45,40.82,580.07,40.85,580.96,40.93z"/>
	<path class="st2" d="M580.65,25.91c-0.6,0.55-1.47,0.12-1.98,0.06C579.23,25.66,580.03,26.24,580.65,25.91z"/>
	<path class="st2" d="M579.11,31.51c-0.23,0.2-0.61,0.24-0.94,0.34C578.11,31.32,578.72,31.54,579.11,31.51z"/>
	<path class="st2" d="M578.1,30.28c-0.28,0.3-0.52,0.16-0.93,0.09C577.27,30.11,577.82,30.35,578.1,30.28z"/>
	<path class="st2" d="M577.1,28.82c-0.13,0.31-1,0.38-0.81-0.26c0.25-0.05,0.22,0.18,0.22,0.37
		C576.79,28.98,576.77,28.71,577.1,28.82z"/>
	<path class="st2" d="M574.65,37.99C575.23,37.5,576.21,38.24,574.65,37.99L574.65,37.99z"/>
	<path class="st2" d="M573.38,42.4c-0.48,0.24-0.95,0.18-1.51,0.08C572.22,42.32,573.14,42.29,573.38,42.4z"/>
	<path class="st2" d="M573.01,43.11c0.17,0.37-0.77,0.35-0.58-0.02C572.62,43.1,572.82,43.1,573.01,43.11z"/>
	<path class="st2" d="M571.92,49.44c-0.16,0.25-0.53,0.3-0.82,0.22C571.18,49.36,571.79,49.31,571.92,49.44z"/>
	<path class="st2" d="M568.68,48.87C567.72,49.42,567.38,48.85,568.68,48.87L568.68,48.87z"/>
	<path class="st2" d="M594.79,49.11c-0.19,0.16-0.46,0.24-0.59,0.46c-0.36-0.48-1.02-0.05-1.5-0.28
		C593.29,48.77,593.93,49.44,594.79,49.11z"/>
	<path class="st2" d="M581.83,38.79c-0.28,0.04-0.25-0.23-0.58-0.14c-0.03-0.2,0.11-0.2,0.12-0.36c-0.58-0.09-0.9,0.09-1.4,0.08
		c0.06-0.1,0.13-0.19,0.13-0.36c-0.66,0.65-1.42-0.38-2.78-0.08c1.31-0.69,4.2-0.17,5.35-0.33c-0.17,0.47-1.17,0.04-1.29,0.56
		C581.35,38.56,582.02,38.25,581.83,38.79z"/>
	<path class="st2" d="M580.61,27.47c-0.13,0.02-0.07,0.12,0,0.12c-0.04,0.28-0.51,0.05-0.58-0.02
		C580.17,27.24,581.7,27.43,580.61,27.47z"/>
	<path class="st2" d="M571.99,28.8c0-0.16,0.01-0.32,0.01-0.48c-0.74,0.03-1.93,0.13-2.43-0.31c0.88-0.34,2.74,0.5,3.37-0.26
		c0.15,0.13,0.42,0.13,0.57,0.25c2.05-0.75,4.27,0.06,6.39-0.42c-0.95,1.28-3.12-0.47-4.2,0.84c-0.18-0.07,0-0.12,0.12-0.12
		C574.89,28.32,573.2,28.03,571.99,28.8z"/>
	<path class="st2" d="M572.75,44.06c-0.18,0.21-0.51,0.27-0.71,0.46C571.94,44.5,572.52,43.73,572.75,44.06z"/>
	<path class="st2" d="M786.64,55.56c0.52,0,19.43-3.21,19.98-3.21c1.28,0,2.42,0.46,3.71,0.22c1.14-0.21,2.21-0.85,3.39-0.99
		c0.88-0.1,1.17-0.28,1.75-0.43c1.72-0.44,3.12-0.21,3.87-1.45c1.2-0.82,2.71-1.3,3.77-2.06c0.17-0.12,0.52-0.06,0.58-0.1
		c2.68-1.91,4.32-5.03,7.48-6.39c0.27-0.71,0.46-1.73,1-2.61c0.24-0.4,0.78-0.65,0.96-1.06c0.64-1.5,0.08-3.4,1.28-4.52
		c0.07-0.38-0.15-0.48-0.21-0.73c0.03-2.98-0.44-5.5-0.15-7.81c-0.82-1.37-0.64-2.95-1.28-4.24c-0.4-0.8-1.17-1.56-1.68-2.33
		c-0.58-0.88-1.19-1.56-1.68-2.45c0.01-0.9-0.74-1.07-0.88-1.83c-0.9-0.56-1.59-1.33-2.5-1.87c-0.09-0.3-0.31-0.48-0.33-0.85
		c-1.93-1.53-3.87-3.43-6.51-4.02c-0.24-0.05-0.74-0.15-1.04-0.15c-1.96,0.03-4.97-0.28-6-1.49c-0.35-0.1-0.35,0.2-0.7,0.1
		c-0.22-0.57-22.97-5.34-23.87-5.3c-0.31,0.01,20.85,4.46,20.17,4.6c-1.01,0.2-1.97-0.84-2.88-0.68
		c-0.42,0.07-15.93-2.23-16.36-2.07c-1.14,0.41,11.61,3.11,10.66,2.87c-0.75-0.19-1.04-0.76-1.61-0.65
		c-0.52,0.11-24.84,0.55-24.79,1.48c-1.48,2.03,18.64,0.64,16.36,1.53c-1.68-0.73-3.28,0.48-4.88,0.35
		c-0.32-0.03-0.71-0.28-1.04-0.27c-0.55,0.01-1.28,0.4-1.99,0.54c-1.21,0.25-2.27,0.19-3.26,0.51c-1.54-1.2-2.66,0.18-3.95,0.13
		c-0.48-0.02-0.96-0.4-1.5-0.4c-0.46,0-0.9,0.35-1.4,0.32c-0.5-0.02-1.02-0.41-1.5-0.4c-0.36,0-0.64,0.24-0.93,0.21
		c-0.39-0.03-0.63-0.32-1.04-0.27c-0.43,0.06-0.86,0.51-1.29,0.56c-1.58,0.19-3.29-0.3-4.77,0.59c-2.69-0.75-5.04,0.45-8.23-0.35
		c-0.79,0.24-1.38,0.42-2.21,0.18c-0.19,0.09-0.18,0.38-0.47,0.35c-1.66-0.35-3.4,0.65-5.11,0.22c-0.06,0.14-0.13,0.27-0.24,0.35
		c-2.36-0.58-5.34-0.65-7.2,0.04c-1.44-0.6-3.11,0.09-4.88,0.11c-0.83,0.01-1.65-0.32-2.43-0.19c-1.53,0.26-3.53-0.06-4.99,0.1
		c-0.44,0.05-0.86,0.39-1.29,0.44c-0.78,0.1-1.61-0.24-2.43-0.07c-3.19,0.68-6.85,0.21-9.64,0.21c-0.86,0-1.6,0.39-2.57,0.53
		c-1.6,0.23-3.26-0.41-4.87-0.26c-0.4,0.04-0.8,0.28-1.17,0.33c-0.96,0.13-1.88-0.1-2.9-0.08c-2.49,0.06-4.98,0.72-7.32,0.16
		c-2.99,0.79-7.34,0.53-10.81,0.66c-0.78,0.65-1.52,0.09-2.32,0.17c-2.48,0.26-5.65,1-8.25,0.49c-10.93,1.16-22.32,0.65-33.13,1.96
		c-0.85-0.5-2.16-0.18-2.9,0.16c-0.16-0.31-0.66-0.29-1.04-0.39c-1.36,0.8-87.55,0.52-89.26,0.72c-0.43,0.78,83.03-0.18,82.38,0.41
		c-0.28-0.43,0.37-0.37-0.1-0.6c-1.11,1.41-4.85,0.75-6.53,1.14c0.12,0,0.14,0.21-0.01,0.24c-0.41-0.35-0.6,0.35-1.05,0.33
		c-3.05,0.16-5.23,1.55-7.83,2.06c-0.33-0.2-1.2-0.8-1.5-0.28c0.47,0.08,1.07,0.04,1.03,0.63c-0.78-0.19-1.81,0.07-2.33,0.54
		c-0.97,0.05-1.46-0.26-2.33,0.18c-0.21-0.01,0.21,0.61-0.25,0.59c-1.35-0.31-2.04,0.21-3.25-0.09c-0.35,0.55-1.78,0.72-2.22,0.42
		c-0.4,0.24,0.44,0.46,0.1,0.6c-1.1,0.17-2.12,0.41-3.13,0.03c-0.25,0.26-0.42,0.61-0.83,0.7c-0.28,0.04,0.08-0.54-0.34-0.37
		c-0.39,0.31,0.3,0.55,0.21,0.97c-0.55,0.2-0.44,0.49-0.72,0.82c-0.77-0.33-1.29,0.34-1.99,0.54c-0.72,0.21-1.52,0-2.21,0.18
		c-0.59,0.15-0.85,0.57-1.52,0.56c-0.55-0.01-1.01-0.44-1.61-0.4c-0.32,0.1,0.22,0.45-0.24,0.47c-2.13,0.14-4.26,0.29-5.83,1.04
		c2.41-0.94,4.17,0.06,6.29-0.78c0.32,0.54,0.95-0.33,1.27,0.39c0.14-0.31-0.35-0.53,0.13-0.48c0.16,0.04,0.22,0.18,0.46,0.13
		c-0.3,0.64,0.15,0.64,0.32,1.09c1.8-0.04,3.21-0.33,4.77-0.35c0.29-0.15-0.2-0.37,0.13-0.48c0.59-0.11,1.05-0.01,1.75-0.19
		c0.21,0.48,0.68,0.71,0.43,1.33c-2.1-0.04-4.95,0.89-7.45,0.99c-0.76,0.03-1.54-0.46-1.98,0.31c1.12-0.23,2.03,0.61,3,0.68
		c1.26,0.1,2.61-0.66,3.84-0.49c0.35,0.05,0.49,0.26,0.8,0.26c0.25,0,0.66-0.36,0.94-0.33c0.3,0.02,0.32,0.28,0.57,0.26
		c0.53-0.05,0.93-0.45,1.52-0.44c0.98,0.02,1.94,0.47,3.01,0.32c0.2,0.21,0.11,0.75-0.14,0.84c-1.27-0.03-1.49,0-2.79,0.04
		c0.15,0.05,0.23,0.16,0.22,0.37c-0.4-0.04-0.54-0.19-0.82,0.1c0.96-0.02,0.88,0.9,0.55,1.34c-2.4-0.16-5.34,0.26-7.31-0.08
		c-0.22,0.25-0.36,0.59-0.71,0.7c-2.22,0.3-4.71-0.01-7.09,0.28c2.72,0.72,5.55,0.29,8.7,0c0.12,0.11,0.02,0.44,0.34,0.37
		c1.34-0.34,2.91-0.25,3.96-0.37c0.47,0.52,0.92,1.05,1.35,1.6c3.31-0.44,5.73,1.68,8.89,1.69c-0.02,0.36,0.23,0.47,0.33,0.73
		c-0.25,0.3-0.42,0.69-0.72,0.94c-0.52,0.02-1.05,0.22-1.51-0.04c-2.67,1.07-6.46,0.31-9.77,0.93c-0.4,0.6-0.09,1.06,0.19,1.57
		c1.6,0.35,3.06-0.49,4.75,0.25c0.61,1.42-0.03,2.4-1.34,2.48c-2.17,0.13-5.9-0.01-7.31-0.2c-6.36,0.84-12.66,0.49-19.18,1.15
		c3.62,0.27,6.97-0.48,10.21,0.04c-0.01-0.26,0.11-0.38,0.36-0.35c3.19,0.14,6.73,0.13,9.53-0.34c1.17,0.87,3.44-0.15,4.62,0.73
		c-0.3,1.36-1.27,1.99-2.5,2.33c1.25-0.08,2.42,0.37,3.47,0.46c0.86,0.07,2.35-0.34,2.79-0.04c0.11,0.07-0.1,0.35,0.11,0.36
		c-0.35-0.02,0.63-0.08,0.7-0.1c0.47-0.16,0.38-0.26,0.93-0.21c0.71,0.06,0.7,0.08,1.15,0.39c2.46,0.22,4.85-0.2,7.31,0.08
		c0.25,0.03,0.77,0.01,0.81,0.02c0.23,0.09,0.03,0.32,0.34,0.37c0.17,0.03,0.1-0.26,0.35-0.23c0.96,0.11,2.05,0.23,3.01,0.2
		c2.4-0.07,5.23,0.26,7.19,0.2c0.44,0.09-140.38,1.82-139.79,1.81c3.37,0.29,147.17-0.79,150.78-0.67c0.27,0.04,0.05,0.57,0.45,0.49
		c0.5,0.09,0.38-0.49,0.82-0.46c0.28,0.16,0.53,0.34,0.68,0.62c4.13,0.44,8.39-0.05,12.66-0.25c3.97-0.19,7.96-0.18,11.73-0.28
		c2.97-0.08,5.82-0.59,8.48-0.24c3.57-0.4,6.65-0.38,9.99-0.44c2.41-0.05,5.06,0.23,7.08-0.04c0.35-0.05,0.76-0.33,1.17-0.33
		c0.61,0,1.23,0.41,1.84,0.41c1.66,0.01,3.35-0.48,5-0.46c1.85,0.03,3.63,0.11,5.45,0.15c1.03,0.02,2.01-0.36,3.03-0.4
		c0.67-0.02,1.38,0.3,2.08,0.3c1.96-0.02,3.96-0.55,5.81-0.44c2.48,0.14,5.03,0.67,7.54,0.09c2.78,0.32,6.16,0.34,8.82,0.12
		c2.16,0.96,4.4-0.03,6.84,0.19c0.26,0.02,0.43,0.21,0.69,0.26c3.69,0.71,7.79-0.57,10.79,0.06c1.12-0.63,2.08,0.06,3.13,0.21
		c1.13,0.15,2.17-0.26,3.26-0.27c0.36,0,0.68,0.24,1.04,0.27c1.1,0.09,2.17-0.31,3.38-0.38c1.81-0.12,3.73,0.92,5.79,0.28
		c1.6,0.45,3.97,0.97,5.79,0.4c3.09,0.9,6.22-0.15,9.39,0.26c1.07,0.14,2.05,0.78,3.13,0.21c1.12,0.65,2.46,0.27,3.82,0.35
		c1.35,0.08,2.75,0.45,4.16,0.6c2.01,0.21-27.43,1.79-25.93,3.1c0.69,2.73,33.95-3.38,35.55-2.84c0.85,0.55,0.74,1.32,1.1,2.31
		c0.76,0.41,1.47,0.16,2.21-0.06C803.21,51.54,785.5,55.54,786.64,55.56z M601.84,23.38c0.02-0.14-0.02-0.21-0.11-0.24
		C601.98,22.56,602.52,23.4,601.84,23.38z M601.6,23.61c-0.96,0.05-2.32,0.59-3.02,0.16c-0.19,0,0.17,0.68-0.14,0.84
		c-0.41-0.3-0.9-0.52-1.61-0.52c-0.05-1,1.36-0.4,1.43-1.28c0.54,0.08,0.81,0.13,1.05-0.33c1.11,0.33,1.36-0.28,2.2,0.06
		C601.29,23.1,601.66,22.97,601.6,23.61z"/>
</g>
<linearGradient id="SVGID_1_" gradientUnits="userSpaceOnUse" x1="460.0745" y1="-268.9486" x2="492.1628" y2="-268.9486" gradientTransform="matrix(6.123234e-17 -1 1 6.123234e-17 680.4627 504.3516)">
	<stop  offset="0" style="stop-color:#000000"/>
	<stop  offset="0.4954" style="stop-color:#29ABE2"/>
	<stop  offset="1" style="stop-color:#000000"/>
</linearGradient>
<path class="st3" d="M806.33,12.19L0,28.23l806.33,16.04v-0.09c0.24,0.01,0.48,0.04,0.72,0.04c8.82,0,15.97-7.15,15.97-15.97
	c0-8.82-7.15-15.97-15.97-15.97c-0.24,0-0.48,0.03-0.72,0.04V12.19z"/>
<defs>
	<filter id="Adobe_OpacityMaskFilter" filterUnits="userSpaceOnUse" x="0" y="12.19" width="823.03" height="32.09">
		
			<feColorMatrix  type="matrix" values="-1 0 0 0 1  0 -1 0 0 1  0 0 -1 0 1  0 0 0 1 0" color-interpolation-filters="sRGB" result="source"/>
	</filter>
</defs>
<mask maskUnits="userSpaceOnUse" x="0" y="12.19" width="823.03" height="32.09" id="SVGID_00000038390435196665415590000000822360237137973918_">
	<g class="st4">
		<g>
			
				<linearGradient id="SVGID_00000035514952916119781910000005047966537306413492_" gradientUnits="userSpaceOnUse" x1="476.1187" y1="125.8718" x2="476.1187" y2="-680.4627" gradientTransform="matrix(6.123234e-17 -1 1 6.123234e-17 680.4627 504.3516)">
				<stop  offset="0" style="stop-color:#FFFFFF"/>
				<stop  offset="0.1799" style="stop-color:#FCFCFC"/>
				<stop  offset="0.3124" style="stop-color:#F3F3F3"/>
				<stop  offset="0.4297" style="stop-color:#E3E3E3"/>
				<stop  offset="0.5383" style="stop-color:#CCCCCC"/>
				<stop  offset="0.6407" style="stop-color:#AFAFAF"/>
				<stop  offset="0.7387" style="stop-color:#8B8B8B"/>
				<stop  offset="0.8331" style="stop-color:#606060"/>
				<stop  offset="0.9223" style="stop-color:#303030"/>
				<stop  offset="1" style="stop-color:#000000"/>
			</linearGradient>
			<polygon style="fill:url(#SVGID_00000035514952916119781910000005047966537306413492_);" points="0,28.23 806.33,44.28 
				806.33,12.19 			"/>
		</g>
		
			<linearGradient id="SVGID_00000156555903424507520550000009170944487635378363_" gradientUnits="userSpaceOnUse" x1="476.1187" y1="110.618" x2="476.1187" y2="142.5654" gradientTransform="matrix(6.123234e-17 -1 1 6.123234e-17 680.4627 504.3516)">
			<stop  offset="0" style="stop-color:#FFFFFF"/>
			<stop  offset="0.2723" style="stop-color:#FDFDFD"/>
			<stop  offset="0.4099" style="stop-color:#F5F5F5"/>
			<stop  offset="0.5174" style="stop-color:#E8E8E8"/>
			<stop  offset="0.6093" style="stop-color:#D5D5D5"/>
			<stop  offset="0.6912" style="stop-color:#BCBCBC"/>
			<stop  offset="0.766" style="stop-color:#9E9E9E"/>
			<stop  offset="0.8355" style="stop-color:#7A7A7A"/>
			<stop  offset="0.9007" style="stop-color:#515151"/>
			<stop  offset="0.9602" style="stop-color:#232323"/>
			<stop  offset="1" style="stop-color:#000000"/>
		</linearGradient>
		<circle style="fill:url(#SVGID_00000156555903424507520550000009170944487635378363_);" cx="807.05" cy="28.23" r="15.97"/>
	</g>
</mask>
<g style="mask:url(#SVGID_00000038390435196665415590000000822360237137973918_);">
	<g>
		<polygon points="0,28.23 806.33,44.28 806.33,12.19 		"/>
	</g>
	<circle cx="807.05" cy="28.23" r="15.97"/>
</g>
</svg>
