<?xml version="1.0" encoding="utf-8"?>
<!-- Generator: Adobe Illustrator 27.2.0, SVG Export Plug-In . SVG Version: 6.00 Build 0)  -->
<svg version="1.1" id="Layer_1" xmlns="http://www.w3.org/2000/svg" xmlns:xlink="http://www.w3.org/1999/xlink" x="0px" y="0px"
	 width="800px" height="800px" viewBox="0 0 800 800" style="enable-background:new 0 0 800 800;" xml:space="preserve">
<style type="text/css">
	.st0{fill:#00FF00;}
</style>
<g>
	<path class="st0" d="M268.005,507.085c-24.026-7.253-49.22-43.74-27.586-62.6c11.657-10.027-1.836-30.403,23.767-50.258
		c5.627-1.997,9.789-5.426,16.545-5.002c15.599-0.947,21.797-26.694,28.481-38.996c12.621-20.151,8.918-15.565,7.85-35.672
		c3.268-2.69,6.871-0.947,9.605,1.895c20.274,11.672,10.894-39.398-5.165-41.854c-23.777-9.642-20.076-35.953-31.468-54.086
		c-15.596-3.634-23.859-31.22-36.624-27.733c2.761-6.689-3.613-5.706-2.01-14.293c11.449-32.724,41.584,29.033,60.24,32.791
		c10.049,21.872,40.508,24.493,48.509,44.667c4.678,17.151,16.151,20.464,32.024,17.166c62.301-5.212,133.917-40.259,187.639,0.953
		c7.44,7.587,21.961,4.997,31.759,11.851c11.146,6.841,12.594,19.573,19.141,30.655c3.796,14.004,16,25.915,22.384,37.027
		c3.553,31.08,17.718,65.234,0.322,95.727c-5.581,12.94,24.379,27.034,2.331,38.7c-15.656,12.746,7.052,32.096-8.229,47.109
		c-2.904,4.284-8.225,8.031-6.389,14.43c-16.63,27.528,28.114,27.086,38.591,48.767c10.133,28.689-30.093,1.894-38.83-5.851
		c-13.857-23.706-20.835,11.204-35.492,16.106c-34.309,15.545-13.381,21.883-63.603,30.476
		c-19.344-1.169-38.773,13.147-58.179-0.268c-30.399,16.2-61.922,14.492-94.465,8.456c-8.981-14.151-46.406-60.569-60.825-51.978
		c-12.205,1.979-20.733,23.628-32.455,7.568c-3.074-8.016-6.774-10.985-12.028-1.378c-11.363,10.419-23.357-6.791-10.698-15.524
		c8.066-6.553,14.217-14.681,19.986-23.1c9.362-0.445,17.147-2.954,20.756-12.595c6.659-8.802-6-15.594-11.649-5.996
		c-11.71,21.696-31.278,20.257-46.667,5.201c-5.756-22.464,50.01-24.64,50.418-42.604
		C296.908,497.116,279.769,507.996,268.005,507.085z"/>
	<path class="st0" d="M573.997,773.286c-2.369-8.939-16.81-43.224,5.414-30.356c3.408,14.285,10.308,28.47,16.362,40.029
		c0.883,3.097,6.948,6.143,0.105,9.32C583.898,800.15,580.419,782.151,573.997,773.286z"/>
	<path class="st0" d="M115.586,37.305c-0.874-10.424-19.825-17.102-10.6-28.322C133.002-3.815,156.062,73.252,115.586,37.305z"/>
	<path class="st0" d="M427.187,749.41c-4.091-11.818-8.392-46.334,3.125-52.095c13.185,9.213,3.052,33.84,7.024,48.504
		C436.933,750.833,431.107,749.128,427.187,749.41z"/>
	<path class="st0" d="M659.092,552.626c1.333-11.65,11.285-3.67,16.409-6.685C709.363,559.425,670.535,578.072,659.092,552.626z"/>
	<path class="st0" d="M711.025,51.197c-1.619,5.154-4.94,9.412-10.891,10.785C685.11,62.947,707.127,31.234,711.025,51.197z"/>
</g>
</svg>
