<?xml version="1.0" encoding="utf-8"?>
<!-- Generator: Adobe Illustrator 28.0.0, SVG Export Plug-In . SVG Version: 6.00 Build 0)  -->
<svg version="1.1" id="Layer_1" xmlns="http://www.w3.org/2000/svg" xmlns:xlink="http://www.w3.org/1999/xlink" x="0px" y="0px"
	 width="834.41px" height="58.36px" viewBox="0 0 834.41 58.36" style="enable-background:new 0 0 834.41 58.36;"
	 xml:space="preserve">
<style type="text/css">
	.st0{opacity:0.46;}
	.st1{fill:none;}
	.st2{fill-rule:evenodd;clip-rule:evenodd;fill:#0071BC;}
	.st3{fill-rule:evenodd;clip-rule:evenodd;fill:#39B54A;}
	.st4{fill:url(#SVGID_1_);}
	.st5{filter:url(#Adobe_OpacityMaskFilter);}
	.st6{fill:url(#SVGID_00000144309581443554043190000006085660922890638224_);}
	.st7{fill:url(#SVGID_00000146467738680021866430000012907627008819843224_);}
	.st8{mask:url(#SVGID_00000030473636950027849080000001554806822859178687_);}
</style>
<g class="st0">
	<rect x="567.83" y="6.42" class="st1" width="266.58" height="49.1"/>
	<path class="st2" d="M622.08,51.29c-0.15,0.17-0.4,0.22-0.7,0.22C621.45,51.23,621.84,51.03,622.08,51.29z"/>
	<path class="st2" d="M611.45,17.99c-0.21,0.15-0.88,0.43-0.81-0.14C611.02,17.78,611.18,17.94,611.45,17.99z"/>
	<path class="st2" d="M610.31,17.23c-0.06,0.27-0.57,0.03-0.81,0.1C609.51,16.98,610.16,17.07,610.31,17.23z"/>
	<path class="st2" d="M607.05,22.3c-0.17,0.18-0.61,0.32-0.82,0.1C606.29,22.14,606.8,22.37,607.05,22.3z"/>
	<path class="st2" d="M605.56,16.98c-0.28,0.31-0.75,0.41-1.4,0.32C604.38,16.94,605.06,17.05,605.56,16.98z"/>
	<path class="st2" d="M601.51,43.16c-0.71,0.03-2.16,0.49-2.67-0.07C599.71,43.44,600.71,42.87,601.51,43.16z"/>
	<path class="st2" d="M599.61,31.7c-0.89,0.7-2.47-0.08-3.61,0.38c-0.16-0.59,1.66-0.08,1.99-0.54c0.27,0.05,0.47,0.16,0.69,0.26
		C598.99,31.75,599.28,31.36,599.61,31.7z"/>
	<path class="st2" d="M588.74,29.96c0.02,0.31-0.06,0.51-0.36,0.47c-0.09-0.11-0.12-0.27-0.1-0.48
		C588.43,29.95,588.59,29.96,588.74,29.96z"/>
	<path class="st2" d="M584.23,34.04c-0.72,0.54-2.35,0.58-3.25,0.15c-0.12,0.08-0.13,0.27-0.35,0.23c-0.54,0.07-1.75-0.16-0.58-0.14
		C581.49,33.91,582.64,34.28,584.23,34.04z"/>
	<path class="st2" d="M583.69,28.02c-0.17,0.18-0.46,0.24-0.82,0.22C582.95,27.95,583.55,27.89,583.69,28.02z"/>
	<path class="st2" d="M582.58,43.72c-0.13,0.27-0.73,0.02-1.05,0.09C581.77,43.65,582.32,43.47,582.58,43.72z"/>
	<path class="st2" d="M582.82,30.04c-0.29,0.31-0.93,0.22-1.29,0.45C581.22,30.01,582.38,30.09,582.82,30.04z"/>
	<path class="st2" d="M582.29,28.34c-0.23,0.37-0.9,0.25-1.4,0.32C581.18,28.37,581.83,28.46,582.29,28.34z"/>
	<path class="st2" d="M581.46,46.57c-0.04,0.41-0.5,0.36-0.83,0.46C580.71,46.65,581.18,46.7,581.46,46.57z"/>
	<path class="st2" d="M580.96,43.67c-0.38,0.34-1.68,0.24-2.32,0.17C579.45,43.57,580.07,43.59,580.96,43.67z"/>
	<path class="st2" d="M580.65,28.66c-0.6,0.55-1.47,0.12-1.98,0.06C579.23,28.4,580.03,28.99,580.65,28.66z"/>
	<path class="st2" d="M579.11,34.26c-0.23,0.2-0.61,0.24-0.94,0.34C578.11,34.07,578.72,34.28,579.11,34.26z"/>
	<path class="st2" d="M578.1,33.03c-0.28,0.3-0.52,0.16-0.93,0.09C577.27,32.85,577.82,33.09,578.1,33.03z"/>
	<path class="st2" d="M577.1,31.56c-0.13,0.31-1,0.38-0.81-0.26c0.25-0.05,0.22,0.18,0.22,0.37
		C576.79,31.72,576.77,31.45,577.1,31.56z"/>
	<path class="st2" d="M574.65,40.73C575.23,40.24,576.21,40.99,574.65,40.73L574.65,40.73z"/>
	<path class="st2" d="M573.38,45.14c-0.48,0.24-0.95,0.18-1.51,0.08C572.22,45.06,573.14,45.03,573.38,45.14z"/>
	<path class="st2" d="M573.01,45.85c0.17,0.37-0.77,0.35-0.58-0.02C572.62,45.84,572.82,45.84,573.01,45.85z"/>
	<path class="st2" d="M571.92,52.18c-0.16,0.25-0.53,0.3-0.82,0.22C571.18,52.11,571.79,52.05,571.92,52.18z"/>
	<path class="st2" d="M568.68,51.61C567.72,52.16,567.38,51.59,568.68,51.61L568.68,51.61z"/>
	<path class="st2" d="M594.79,51.86c-0.19,0.16-0.46,0.24-0.59,0.46c-0.36-0.48-1.02-0.05-1.5-0.28
		C593.29,51.51,593.93,52.19,594.79,51.86z"/>
	<path class="st2" d="M581.83,41.53c-0.28,0.04-0.25-0.23-0.58-0.14c-0.03-0.2,0.11-0.2,0.12-0.36c-0.58-0.09-0.9,0.09-1.4,0.08
		c0.06-0.1,0.13-0.19,0.13-0.36c-0.66,0.65-1.42-0.38-2.78-0.08c1.31-0.69,4.2-0.17,5.35-0.33c-0.17,0.47-1.17,0.04-1.29,0.56
		C581.35,41.3,582.02,40.99,581.83,41.53z"/>
	<path class="st2" d="M580.61,30.22c-0.13,0.02-0.07,0.12,0,0.12c-0.04,0.28-0.51,0.05-0.58-0.02
		C580.17,29.98,581.7,30.17,580.61,30.22z"/>
	<path class="st2" d="M571.99,31.54c0-0.16,0.01-0.32,0.01-0.48c-0.74,0.03-1.93,0.13-2.43-0.31c0.88-0.34,2.74,0.5,3.37-0.26
		c0.15,0.13,0.42,0.13,0.57,0.25c2.05-0.75,4.27,0.06,6.39-0.42c-0.95,1.28-3.12-0.47-4.2,0.84c-0.18-0.07,0-0.12,0.12-0.12
		C574.89,31.06,573.2,30.77,571.99,31.54z"/>
	<path class="st2" d="M572.75,46.8c-0.18,0.21-0.51,0.27-0.71,0.46C571.94,47.24,572.52,46.48,572.75,46.8z"/>
	<path class="st3" d="M803.11,57.41c0.52,0,2.96-2.32,3.51-2.32c1.28,0,2.42,0.46,3.71,0.22c1.14-0.21,2.21-0.85,3.39-0.99
		c0.88-0.1,1.17-0.28,1.75-0.43c1.72-0.44,3.12-0.21,3.87-1.45c1.2-0.82,2.71-1.3,3.77-2.06c0.17-0.12,0.52-0.06,0.58-0.1
		c2.68-1.91,4.32-5.03,7.48-6.39c0.27-0.71,0.46-1.73,1-2.61c0.24-0.4,0.78-0.65,0.96-1.06c0.64-1.5,0.08-3.4,1.28-4.52
		c0.07-0.38-0.15-0.48-0.21-0.73c0.03-2.98-0.44-5.5-0.15-7.81c-0.82-1.37-0.64-2.95-1.28-4.24c-0.4-0.8-1.17-1.56-1.68-2.33
		c-0.58-0.88-1.19-1.56-1.68-2.45c0.01-0.9-0.74-1.07-0.88-1.83c-0.9-0.56-1.59-1.33-2.5-1.87c-0.09-0.3-0.31-0.48-0.33-0.85
		c-1.93-1.53-3.87-3.43-6.51-4.02c-0.24-0.05-0.74-0.15-1.04-0.15c-1.96,0.03-4.97-0.28-6-1.49c-0.35-0.1-0.35,0.2-0.7,0.1
		c-0.22-0.57-1.26-1.65-2.16-1.62c-0.31,0.01-0.85,0.78-1.53,0.92c-1.01,0.2-1.97-0.84-2.88-0.68c-0.42,0.07-5.94-4.04-6.38-3.88
		c-1.14,0.41,1.63,4.93,0.67,4.69C798.4,7.27,782.39-0.12,781.81,0c-0.52,0.11,14.82,7.55,14.87,8.48c-1.48,2.03-5.3,0.46-7.58,1.35
		c-1.68-0.73-3.28,0.48-4.88,0.35c-0.32-0.03-0.71-0.28-1.04-0.27c-0.55,0.01-1.28,0.4-1.99,0.54c-1.21,0.25-2.27,0.19-3.26,0.51
		c-1.54-1.2-2.66,0.18-3.95,0.13c-0.48-0.02-0.96-0.4-1.5-0.4c-0.46,0-0.9,0.35-1.4,0.32c-0.5-0.02-1.02-0.41-1.5-0.4
		c-0.36,0-0.64,0.24-0.93,0.21c-0.39-0.03-0.63-0.32-1.04-0.27c-0.43,0.06-0.86,0.51-1.29,0.56c-1.58,0.19-3.29-0.3-4.77,0.59
		c-2.69-0.75-5.04,0.45-8.23-0.35c-0.79,0.24-1.38,0.42-2.21,0.18c-0.19,0.09-0.18,0.38-0.47,0.35c-1.66-0.35-3.4,0.65-5.11,0.22
		c-0.06,0.14-0.13,0.27-0.24,0.35c-2.36-0.58-5.34-0.65-7.2,0.04c-1.44-0.6-3.11,0.09-4.88,0.11c-0.83,0.01-1.65-0.32-2.43-0.19
		c-1.53,0.26-3.53-0.06-4.99,0.1c-0.44,0.05-0.86,0.39-1.29,0.44c-0.78,0.1-1.61-0.24-2.43-0.07c-3.19,0.68-6.85,0.21-9.64,0.21
		c-0.86,0-1.6,0.39-2.57,0.53c-1.6,0.23-3.26-0.41-4.87-0.26c-0.4,0.04-0.8,0.28-1.17,0.33c-0.96,0.13-1.88-0.1-2.9-0.08
		c-2.49,0.06-4.98,0.72-7.32,0.16c-2.99,0.79-7.34,0.53-10.81,0.66c-0.78,0.65-1.52,0.09-2.32,0.17c-2.48,0.26-5.65,1-8.25,0.49
		c-10.93,1.16-22.32,0.65-33.13,1.96c-0.85-0.5-2.16-0.18-2.9,0.16c-0.16-0.31-0.66-0.29-1.04-0.39c-1.36,0.8-3.06,0.15-4.77,0.35
		c-0.43,0.78-1.46,0.19-2.11,0.78c-0.28-0.43,0.37-0.37-0.1-0.6c-1.11,1.41-4.85,0.75-6.53,1.14c0.12,0,0.14,0.21-0.01,0.24
		c-0.41-0.35-0.6,0.35-1.05,0.33c-3.05,0.16-35.25-2-37.85-1.48c-0.33-0.2,28.83,2.75,28.52,3.27c0.47,0.08,1.07,0.04,1.03,0.63
		c-0.78-0.19-1.81,0.07-2.33,0.54c-0.97,0.05-1.46-0.26-2.33,0.18c-0.21-0.01,0.21,0.61-0.25,0.59c-1.35-0.31-2.04,0.21-3.25-0.09
		c-0.35,0.55-1.78,0.72-2.22,0.42c-0.4,0.24,0.44,0.46,0.1,0.6c-1.1,0.17-2.12,0.41-3.13,0.03c-0.25,0.26-0.42,0.61-0.83,0.7
		c-0.28,0.04,0.08-0.54-0.34-0.37c-0.39,0.31,0.3,0.55,0.21,0.97c-0.55,0.2-0.44,0.49-0.72,0.82c-0.77-0.33-1.29,0.34-1.99,0.54
		c-0.72,0.21-1.52,0-2.21,0.18c-0.59,0.15-0.85,0.57-1.52,0.56c-0.55-0.01-1.01-0.44-1.61-0.4c-0.32,0.1,0.22,0.45-0.24,0.47
		c-2.13,0.14-4.26,0.29-5.83,1.04c2.41-0.94,4.17,0.06,6.29-0.78c0.32,0.54,0.95-0.33,1.27,0.39c0.14-0.31-0.35-0.53,0.13-0.48
		c0.16,0.04,0.22,0.18,0.46,0.13c-0.3,0.64,0.15,0.64,0.32,1.09c1.8-0.04,3.21-0.33,4.77-0.35c0.29-0.15-0.2-0.37,0.13-0.48
		c0.59-0.11,1.05-0.01,1.75-0.19c0.21,0.48,0.68,0.71,0.43,1.33c-2.1-0.04-4.95,0.89-7.45,0.99c-0.76,0.03-1.54-0.46-1.98,0.31
		c1.12-0.23,2.03,0.61,3,0.68c1.26,0.1,2.61-0.66,3.84-0.49c0.35,0.05,0.49,0.26,0.8,0.26c0.25,0,0.66-0.36,0.94-0.33
		c0.3,0.02,0.32,0.28,0.57,0.26c0.53-0.05,0.93-0.45,1.52-0.44c0.98,0.02,1.94,0.47,3.01,0.32c0.2,0.21,0.11,0.75-0.14,0.84
		c-1.27-0.03-1.49,0-2.79,0.04c0.15,0.05,0.23,0.16,0.22,0.37c-0.4-0.04-0.54-0.19-0.82,0.1c0.96-0.02,0.88,0.9,0.55,1.34
		c-2.4-0.16-5.34,0.26-7.31-0.08c-0.22,0.25-0.36,0.59-0.71,0.7c-2.22,0.3-4.71-0.01-7.09,0.28c2.72,0.72,5.55,0.29,8.7,0
		c0.12,0.11,0.02,0.44,0.34,0.37c1.34-0.34,2.91-0.25,3.96-0.37c0.47,0.52,0.92,1.05,1.35,1.6c3.31-0.44,5.73,1.68,8.89,1.69
		c-0.02,0.36,0.23,0.47,0.33,0.73c-0.25,0.3-0.42,0.69-0.72,0.94c-0.52,0.02-1.05,0.22-1.51-0.04c-2.67,1.07-6.46,0.31-9.77,0.93
		c-0.4,0.6-0.09,1.06,0.19,1.57c1.6,0.35,3.06-0.49,4.75,0.25c0.61,1.42-0.03,2.4-1.34,2.48c-2.17,0.13-5.9-0.01-7.31-0.2
		c-6.36,0.84-70.78,2.55-77.3,3.21c3.62,0.27,65.09-2.54,68.33-2.02c-0.01-0.26,0.11-0.38,0.36-0.35c3.19,0.14,6.73,0.13,9.53-0.34
		c1.17,0.87,3.44-0.15,4.62,0.73c-0.3,1.36-25.13,4.41-26.36,4.75c1.25-0.08,26.28-2.05,27.33-1.97c0.86,0.07,2.35-0.34,2.79-0.04
		c0.11,0.07-0.1,0.35,0.11,0.36c-0.35-0.02,0.63-0.08,0.7-0.1c0.47-0.16,0.38-0.26,0.93-0.21c0.71,0.06,0.7,0.08,1.15,0.39
		c2.46,0.22,4.85-0.2,7.31,0.08c0.25,0.03,0.77,0.01,0.81,0.02c0.23,0.09,0.03,0.32,0.34,0.37c0.17,0.03,0.1-0.26,0.35-0.23
		c0.96,0.11,2.05,0.23,3.01,0.2c2.4-0.07,5.23,0.26,7.19,0.2c0.44,0.09-0.14,0.5,0.45,0.49c3.37,0.29,6.94,0.52,10.54,0.65
		c0.27,0.04,0.05,0.57,0.45,0.49c0.5,0.09,0.38-0.49,0.82-0.46c0.28,0.16,0.53,0.34,0.68,0.62c4.13,0.44,8.39-0.05,12.66-0.25
		c3.97-0.19,7.96-0.18,11.73-0.28c2.97-0.08,5.82-0.59,8.48-0.24c3.57-0.4,6.65-0.38,9.99-0.44c2.41-0.05,5.06,0.23,7.08-0.04
		c0.35-0.05,0.76-0.33,1.17-0.33c0.61,0,1.23,0.41,1.84,0.41c1.66,0.01,3.35-0.48,5-0.46c1.85,0.03,3.63,0.11,5.45,0.15
		c1.03,0.02,2.01-0.36,3.03-0.4c0.67-0.02,1.38,0.3,2.08,0.3c1.96-0.02,3.96-0.55,5.81-0.44c2.48,0.14,5.03,0.67,7.54,0.09
		c2.78,0.32,6.16,0.34,8.82,0.12c2.16,0.96,4.4-0.03,6.84,0.19c0.26,0.02,0.43,0.21,0.69,0.26c3.69,0.71,7.79-0.57,10.79,0.06
		c1.12-0.63,2.08,0.06,3.13,0.21c1.13,0.15,2.17-0.26,3.26-0.27c0.36,0,0.68,0.24,1.04,0.27c1.1,0.09,2.17-0.31,3.38-0.38
		c1.81-0.12,3.73,0.92,5.79,0.28c1.6,0.45,3.97,0.97,5.79,0.4c3.09,0.9,6.22-0.15,9.39,0.26c1.07,0.14,2.05,0.78,3.13,0.21
		c1.12,0.65,2.46,0.27,3.82,0.35c1.35,0.08,2.75,0.45,4.16,0.6c2.01,0.21-6.33,2.75-4.83,4.07c0.69,2.73,12.85-4.34,14.45-3.8
		c0.85,0.55-3.71,5.59-3.34,6.58c0.76,0.41,5.91-4.11,6.65-4.32C803.21,54.28,801.97,57.4,803.11,57.41z M601.84,26.12
		c0.02-0.14-0.02-0.21-0.11-0.24C601.98,25.3,602.52,26.15,601.84,26.12z M601.6,26.36c-0.96,0.05-2.32,0.59-3.02,0.16
		c-0.19,0,0.17,0.68-0.14,0.84c-0.41-0.3-0.9-0.52-1.61-0.52c-0.05-1,1.36-0.4,1.43-1.28c0.54,0.08,0.81,0.13,1.05-0.33
		c1.11,0.33,1.36-0.28,2.2,0.06C601.29,25.84,601.66,25.71,601.6,26.36z"/>
</g>
<linearGradient id="SVGID_1_" gradientUnits="userSpaceOnUse" x1="-787.398" y1="-79.2748" x2="-755.3097" y2="-79.2748" gradientTransform="matrix(6.123234e-17 -1 1 6.123234e-17 490.7888 -740.3785)">
	<stop  offset="0" style="stop-color:#000000"/>
	<stop  offset="0.4954" style="stop-color:#39B54A"/>
	<stop  offset="1" style="stop-color:#000000"/>
</linearGradient>
<path class="st4" d="M806.33,14.93L0,30.98l806.33,16.04v-0.09c0.24,0.01,0.48,0.04,0.72,0.04c8.82,0,15.97-7.15,15.97-15.97
	c0-8.82-7.15-15.97-15.97-15.97c-0.24,0-0.48,0.03-0.72,0.04V14.93z"/>
<defs>
	<filter id="Adobe_OpacityMaskFilter" filterUnits="userSpaceOnUse" x="0" y="14.93" width="823.03" height="32.09">
		
			<feColorMatrix  type="matrix" values="-1 0 0 0 1  0 -1 0 0 1  0 0 -1 0 1  0 0 0 1 0" color-interpolation-filters="sRGB" result="source"/>
	</filter>
</defs>
<mask maskUnits="userSpaceOnUse" x="0" y="14.93" width="823.03" height="32.09" id="SVGID_00000116938990916321648770000009231092952093016976_">
	<g class="st5">
		<g>
			
				<linearGradient id="SVGID_00000165925257671758582730000007742691553856696474_" gradientUnits="userSpaceOnUse" x1="-771.3539" y1="315.5457" x2="-771.3539" y2="-490.7888" gradientTransform="matrix(6.123234e-17 -1 1 6.123234e-17 490.7888 -740.3785)">
				<stop  offset="0" style="stop-color:#FFFFFF"/>
				<stop  offset="0.1799" style="stop-color:#FCFCFC"/>
				<stop  offset="0.3124" style="stop-color:#F3F3F3"/>
				<stop  offset="0.4297" style="stop-color:#E3E3E3"/>
				<stop  offset="0.5383" style="stop-color:#CCCCCC"/>
				<stop  offset="0.6407" style="stop-color:#AFAFAF"/>
				<stop  offset="0.7387" style="stop-color:#8B8B8B"/>
				<stop  offset="0.8331" style="stop-color:#606060"/>
				<stop  offset="0.9223" style="stop-color:#303030"/>
				<stop  offset="1" style="stop-color:#000000"/>
			</linearGradient>
			<polygon style="fill:url(#SVGID_00000165925257671758582730000007742691553856696474_);" points="0,30.98 806.33,47.02 
				806.33,14.93 			"/>
		</g>
		
			<linearGradient id="SVGID_00000039856435388773247780000010271483711376113290_" gradientUnits="userSpaceOnUse" x1="-771.3539" y1="300.2918" x2="-771.3539" y2="332.2393" gradientTransform="matrix(6.123234e-17 -1 1 6.123234e-17 490.7888 -740.3785)">
			<stop  offset="0" style="stop-color:#FFFFFF"/>
			<stop  offset="0.2723" style="stop-color:#FDFDFD"/>
			<stop  offset="0.4099" style="stop-color:#F5F5F5"/>
			<stop  offset="0.5174" style="stop-color:#E8E8E8"/>
			<stop  offset="0.6093" style="stop-color:#D5D5D5"/>
			<stop  offset="0.6912" style="stop-color:#BCBCBC"/>
			<stop  offset="0.766" style="stop-color:#9E9E9E"/>
			<stop  offset="0.8355" style="stop-color:#7A7A7A"/>
			<stop  offset="0.9007" style="stop-color:#515151"/>
			<stop  offset="0.9602" style="stop-color:#232323"/>
			<stop  offset="1" style="stop-color:#000000"/>
		</linearGradient>
		<circle style="fill:url(#SVGID_00000039856435388773247780000010271483711376113290_);" cx="807.05" cy="30.98" r="15.97"/>
	</g>
</mask>
<g style="mask:url(#SVGID_00000116938990916321648770000009231092952093016976_);">
	<g>
		<polygon points="0,30.98 806.33,47.02 806.33,14.93 		"/>
	</g>
	<circle cx="807.05" cy="30.98" r="15.97"/>
</g>
</svg>
