<?xml version="1.0" encoding="utf-8"?>
<!-- Generator: Adobe Illustrator 27.2.0, SVG Export Plug-In . SVG Version: 6.00 Build 0)  -->
<svg version="1.1" id="Layer_1" xmlns="http://www.w3.org/2000/svg" xmlns:xlink="http://www.w3.org/1999/xlink" x="0px" y="0px"
	 width="800px" height="800px" viewBox="0 0 800 800" style="enable-background:new 0 0 800 800;" xml:space="preserve">
<style type="text/css">
	.st0{fill:#FF00FF;}
</style>
<g>
	<path class="st0" d="M187.842,385.888c29.727,8.262,41.395-46.914,13.552-45.355c-21.096-3.302-26.713-19.525,0.049-15.683
		c30.768,25.349,52.881-64.347,64.45-81.601c62.448-23.991,125.614-30.771,192.349-19.293c11.098,2.651,24.643-4.03,33.525,5.498
		c-0.927,3.02-0.061,4.154,3.061,2.918c22.673,5.44,21.54,26.876,36.174,41.107c12.131,13.206,38.253,17.016,33.246,43.524
		c28.414,11.74,7.826,45.515,31.312,59.135c-27.609,17.988,32.042,47.04-8.856,51.274c-17.784,3.175-12.121,23.9-19.793,36.702
		c-13.854,7.109-8.92,18.413-16.983,27.701c-30.068,11.428-16.585,15.399-27.694,35.048c-49.321-4.404-49.909,36.077-90.117,40.876
		c-35.422,18.112-90.094-7.8-86.858,23.306c-15.175-30-41.782-72.637-79.945-59.016c-4.763,1.628-9.581,10.067-14.418,0.061
		c43.374-39.658-0.976-34.586-26.12-65.414c-9.215-18.592,4.529-39.672-29.948-36.86c30.629-15.16,19.287-36.332-6.576-30.97
		C190.266,394.458,191.59,390.093,187.842,385.888z"/>
	<path class="st0" d="M417.352,77.85c6.34-23.686,2.501-50.087,18.94-71.164c5.123,18.509,4.862,28.089-1.286,48.269
		C425.765,59.999,436.449,80.405,417.352,77.85z"/>
	<path class="st0" d="M384.872,794.222c-18.409-4.096-4.138-19.668-9.905-28.203C389.51,747.554,396.72,786.522,384.872,794.222z"/>
	<path class="st0" d="M178.261,376.632c2.48,14.544-8.319,16.145-18.185,18.653C136.731,380.924,162.577,371.767,178.261,376.632z"
		/>
	<path class="st0" d="M201.373,344.128c-0.201,12.917-9.117,13.815-18.775,13.486c-3.526-0.12-7.645,0.75-8.549-4.71
		C172.564,337.762,192.489,345.055,201.373,344.128z"/>
</g>
</svg>
