<?xml version="1.0" encoding="utf-8"?>
<!-- Generator: Adobe Illustrator 27.2.0, SVG Export Plug-In . SVG Version: 6.00 Build 0)  -->
<svg version="1.1" id="Layer_1" xmlns="http://www.w3.org/2000/svg" xmlns:xlink="http://www.w3.org/1999/xlink" x="0px" y="0px"
	 width="800px" height="800px" viewBox="0 0 800 800" style="enable-background:new 0 0 800 800;" xml:space="preserve">
<style type="text/css">
	.st0{fill:#00FFFF;}
</style>
<g>
	<path class="st0" d="M425.967,577.935c-30.852,2.804,2.201-38.203-47.893-33.48c-10.568,1.73-18.109-14.785-27.12-2.911
		c-1.145,1.552-4.227,1.412-5.723,0.207c-3.046-13.639,15.893-19.344-15.279-16.86c-21.972-16.316,3.148-41.224-45.561-27.022
		c-6.126,1.059-8.118-5.94-1.508-7.298c4.829-2.747,10.586-0.3,15.119-3.414c6.716-3.055,7.479-10.98-1.07-8.967
		c-9.916-1.946-15.971-12.278-10.728-20.672c6.271-10.039,3.052-20.253,2.881-30.457c-1.787-7.395-13.455-2.937-19.177-4.054
		c-14.464-1.358-8.709,17.719-30.515,15.824c-34.585,0.677-63.291,17.362-96.795,20.908c18.501-8.199,37.001-16.396,55.502-24.594
		c17.328-5.856,41.088-0.85,55.021-16.775c12.347-16.35,36.64-22.401,9.264-20.378c-0.232-6.701,18.217-4.195,23.482-7.482
		c12.09-3.144,19.288-32.171,3.398-34.236c-2.146-0.383-5.035-1.623-5.896-4.553c-2.781-17.563,19.348-6.209,25.944-12.837
		c1.212-3.031-3.252-4.599-6.327-5.53c-9.839-14.305-12.448,1.269-28.261-0.843c-16.755,3.848-23.62-15.337-39.681-14.99
		c-8.189-1.4-8.376-14.046-19.095-14.025c-7.925-9.978-13.509-21.839-21.27-32.007c0.262-8.396-8.4-13.112-14.221-16.077
		c-0.071-3.626-1.239-7.43,1.728-10.557c7.312-5.753,1.518-14.088,3.144-21.432c0.703-3.755-0.395-7.782,1.704-11.327
		c1.539-3.54-2.743-6.407-1.151-9.953c8.239-3.083,9.272-11.216,12.488-17.819c5.496-5.319-8.501-12.393,0.546-18.227
		c7.175-0.471,16.755,6.367,20.609-3.127c10.203-2.934,6.168-22.266,18.993-16.654c7.459,4.278,14.349-6.893,22.344-1.856
		c7.377,3.421,14.481-11.79,20.928-1.068c8.211,15.753,22.84-0.697,28.924,8.781c7.227,25.248,25.692,7.46,24.892,23.146
		c1.29,2.438-4.9,4.55-0.311,7.128c2.912,6.52,17.451,5.977,13.795,15.274c-9.413,17.166,18.57,16.029,8.166,25.859
		c-2.293,1.757-3.759,4.688-2.257,7.071c5.903,9.36,0,20.941,6.747,30.288c17.917-7.983,12.524-0.702,28.016-17.082
		c3.516-1.88-1.478-7.318-3.203-10.609c-5.017-13.718,10.682-17.691,16.445,0.887c9.31,11.449,57.291-23.054,80.392-16.151
		c37.265,4.008,19.373-17.953,46.135-0.286c3.075,1.526,4.193-2.65,6.963-1.334c2.93,15.597,25.582,11.895,36.557,6.571
		c3.406-1.668,7.439-4.967,10.419-2.616c7.024,19.35-15.074,27.702,22.687,25.782c11.397,11.356,4.815,27.987,26.916,25.448
		c11.769-2.43,12.841,12.599,22.887,12.661c-0.58,4.243-5.549,2.118-7.133,4.909c-3.704,0.139-5.545,2.682-7.143,5.538
		c-8.898,9.101,2.59,14.354,6.508,21.141c7.778,5.785,1.639,15.759,6.018,23.464c2.311,13.099-10.057,34.723,7.004,41.027
		c5.188,3.469,10.082,7.847,7.277,15.914c-2.971,3.736-9.53,3.096-10.831,8.874c-4.747,4.73-9.195,28.989-8.449,37.509
		c1.425,6.939-6.104,10.686-9.283,15.859c-8.171,4.817,0.024,8.712,1.079,14.263c8.404,11.188-5.809,21.615-16.217,14.566
		c-12.508-9.834-27.374,9.822-15.733,19.482c9.4,11.699-5.951,25.818-17.11,10.67c-0.757-2.369-2.181-3.925-4.865-3.624
		c-5.617,8.163-7.884,20.967-18.381,27.177c-1.293-0.456-1.717,0.246-1.82,1.373c-1.715,1.74-6.329,0.806-4.966,5.384
		c1.681,4.846,5.968,10.729,4.608,17.452c-10.754-15.789-6.643-9.606-17.499,0.079c-35.282-11.057-25.844-8.193-58.693,7.778
		c-29.448,8.112-17.562-13.939-37.332-16.71c-5.246-2.018-10.423-3.523-14.672,1.952c-2.914,0.206-5.767,2.116-4.715,5.473
		C433.846,570.065,430.629,574.839,425.967,577.935z"/>
	<path class="st0" d="M659.416,143.175c-13.406,11.501-21.382,30.083-37.231,38.005c-7.576-1.797-27.298,32.179-28.372,19.13
		c2.982-5.084,9.155-7.878,10.262-14.305c13.64-31.293,41.408-52.327,60.508-79.882c5.965-4.593,8.869-20.11,17.652-17.477
		c2.267,1.839-0.13,4.109-1.186,6.059c-10.305,12.123-20.486,23.184-29.08,36.926c8.227,3.839,8.441-7.657,14.773-10.065
		c6.294-0.796,1.37,6.846,5.323,7.396c-6.403-0.443-5.348,6.533-8.891,8.936C660.661,138.759,659.406,140.517,659.416,143.175z"/>
	<path class="st0" d="M146.325,276.647c-14.971,2.328-100.623-29.404-51.725-19.314c0.839,2.954,6.328,0.986,8.807,1.068
		c-3.771-3.078-9.787-16.042-0.223-13.109c8.782,3.204,17.314,7.161,26.691,8.546c2.153,0.318,3.671,1.662,4.084,3.979
		c0.574,7.989,14.638,3.302,13.955,10.818c-7.593,2.57-15.23-6.908-26.296-2.743C129.546,268.889,145.808,268.064,146.325,276.647z"
		/>
	<path class="st0" d="M657.833,264.735c-33.747-2.459,41.127-37.368,31.997-9.431C679.517,259.563,668.561,261.775,657.833,264.735z
		"/>
	<path class="st0" d="M413.712,205.832c-6.633,0.043-20.649,0.41-14.328-10.226c5.372-5.556-5.016-13.541,2.712-18.143
		C413.552,176.792,426.041,203.693,413.712,205.832z"/>
	<path class="st0" d="M722.21,581.489c2.733-20.19,36.713,10.927,26.494,19.995C737.778,599.393,729.134,590.102,722.21,581.489z"/>
	<path class="st0" d="M717.149,248.266c3.232-2.684,19.357-9.877,13.666-0.086c-15.145,5.431-25.669,14.358-39.633,20.058
		c-11.8,5.643-9.522-8.646,0.469-7.852c1.445,0.019,3.641,0.859,3.577-1.327c1.734-0.565,5.349,0.753,5.389-1.735
		C706.446,254.981,712.032,251.75,717.149,248.266z"/>
	<path class="st0" d="M136.285,378.457c-5.837,6.808-38.304,9.509-24.346-4.073C119.31,373.045,136.169,365.734,136.285,378.457z"/>
	<path class="st0" d="M169.999,147.284c-9.031-2.898-53.724-47.275-27.904-29.223c11.066,11.215,23.754,20.38,36.32,28.945
		C178.932,154.187,172.802,148.712,169.999,147.284z"/>
	<path class="st0" d="M215.834,513.642c-20.317,3.334-0.389-22.795,10.662-17.295C232.544,506.434,220.655,509.677,215.834,513.642z
		"/>
	<path class="st0" d="M244.494,392.508c-14.398-12.579,15.876-20.644,17.659-7.588C260.682,393.128,250.432,390.434,244.494,392.508
		z"/>
	<path class="st0" d="M691.691,121.463c7.365,7.369-24.337,27.981-19.623,7.499C677.906,131.444,677.61,118.539,691.691,121.463z"/>
	<path class="st0" d="M712.936,464.354c29.286,16.102-27.212-2.119-35.287-7.585C681.938,450.527,705.175,464.086,712.936,464.354z"
		/>
	<path class="st0" d="M691.518,326.772c-4.378,1.704-27.117,10.203-28.296,5.276c-0.145-4.686,3.362-5.461,7.073-5.696
		C676.747,325.769,686.995,321.819,691.518,326.772z"/>
	<path class="st0" d="M224.829,331.932c14.884,0.392,29.477,3.059,44.145,3.914c-10.307,6.945-21.104,0.691-31.558,0.482
		c-4.118-0.082-10.801,1.826-14.041-4.075C223.804,332.326,224.473,332.169,224.829,331.932z"/>
	<path class="st0" d="M683.53,294.716c-2.854,5.144-14.153,5.601-13.211-2.316C670.85,283.729,685.028,287.457,683.53,294.716z"/>
	<path class="st0" d="M164.247,367.439c1.161,0.115,2.322,0.23,3.482,0.345c1.52,10.857-6.523,8.307-12.377,8.828
		C145.77,369.365,157.432,366.514,164.247,367.439z"/>
	<path class="st0" d="M98.517,237.605c-2.73-7.993,8.581-9.262,13.371-4.99C120.466,241.701,103.497,240.308,98.517,237.605z"/>
	<path class="st0" d="M25.325,592.478c11.487-2.181,3.004,14.232-5.31,10.301c-3.732-1.014-1.151-4.474-1.808-6.734
		C20.993,595.679,23.298,594.357,25.325,592.478z"/>
	<path class="st0" d="M78.716,278.326c1.949,0,1.55,2.424,3.524,1.626c3.165-0.296,4.793,1.396,7.148,1.981
		c1.685,0.729,4.844-0.969,5.006,1.925C93.752,291.05,59.918,280.264,78.716,278.326z"/>
	<path class="st0" d="M601.132,141.589c17.958-21.572,1.053,6.925-3.962,13.93C589.265,154.743,602.489,146.188,601.132,141.589z"/>
	<path class="st0" d="M155.165,157.662c-9.05-1.123-13.331-5.392-17.68-9.544C144.23,148.223,148.342,152.776,155.165,157.662z"/>
	<path class="st0" d="M93.789,502.315c-1.151,4.815-10.459,6.341-9.498,1.115C85.439,499.887,93.139,498.114,93.789,502.315z"/>
	<path class="st0" d="M228.459,375.855c-0.394,3.692-3.397,2.31-5.417,2.619c-5.425,1.77-4-8.425,0.652-6.671
		C225.323,372.418,228.806,372.307,228.459,375.855z"/>
</g>
</svg>
