<?xml version="1.0" encoding="utf-8"?>
<!-- Generator: Adobe Illustrator 27.2.0, SVG Export Plug-In . SVG Version: 6.00 Build 0)  -->
<svg version="1.1" id="Layer_1" xmlns="http://www.w3.org/2000/svg" xmlns:xlink="http://www.w3.org/1999/xlink" x="0px" y="0px"
	 width="800px" height="800px" viewBox="0 0 800 800" style="enable-background:new 0 0 800 800;" xml:space="preserve">
<style type="text/css">
	.st0{fill:#FFFF00;}
</style>
<g>
	<g>
		<path class="st0" d="M240.356,693.631c27.677-20.565-14.562,58.805-20.467,60.642c-30.476,23.102-76.266-16.045-40.713-47.763
			C211.464,684.162,232.158,726.809,240.356,693.631z"/>
		<path class="st0" d="M651.722,407.897c15.787,45.915-69.094,3.892-22.681-10.694C639.55,394.769,644.682,402.591,651.722,407.897z
			"/>
		<path class="st0" d="M202.329,167.611c-7.562-9.687,5.923-12.527,12.387-6.992c3.166,13.814,25.518,16.187,20.843,32.479
			C220.838,202.97,214.156,173.004,202.329,167.611z"/>
		<path class="st0" d="M235.077,72.211c-12.343-9.158-14.749-25.229-24.875-36.005c-4.577-5.998,9.146-11.066,11.605-5.099
			C223.69,42.523,250.856,65.899,235.077,72.211z"/>
		<path class="st0" d="M335.761,175.522c0.172,5.796,8.898,15.26-2.202,18.273c-11.274-6.329-11.299-20.194-19.254-28.795
			c-2.229-2.41-0.465-4.608,1.868-6.035C327.359,153.003,327.422,172.552,335.761,175.522z"/>
		<path class="st0" d="M720.493,334.517c-6.974,8.206-32.234,6.895-24.801-6.823C702.82,318.591,724.235,318.775,720.493,334.517z"
			/>
		<path class="st0" d="M457.311,185.142c12.773,1.042,6.44,21.695,0.667,27.049C443.607,217.43,442.683,183.479,457.311,185.142z"/>
		<path class="st0" d="M174.492,378.818c6.065,0.454,26.489-0.422,17.464,10.012c-4.676,1.715-36.863,4.567-35.077-6.101
			C161.963,377.884,168.714,380.544,174.492,378.818z"/>
		<path class="st0" d="M333.563,722.947c19.256-2.832,14.932,22.131-2.488,18.039C326.321,734.203,320.016,727.207,333.563,722.947z
			"/>
		<path class="st0" d="M361.448,185.25c2.954,7.716,3.5,18.086-7.399,10.258c-1.748-7.26-15.358-23.39-7.866-28.322
			C356.279,168.978,353.198,181.9,361.448,185.25z"/>
		<path class="st0" d="M467.373,114.691c-6.772,1.951-9.218-3.144-9.685-7.674C453.856,74.099,473.307,93.729,467.373,114.691z"/>
		<path class="st0" d="M376.332,695.223c-15.344,11.832-11.31-23.218,0.006-21.893C381.912,680.57,374.743,686.904,376.332,695.223z
			"/>
		<path class="st0" d="M374.179,243.075c0.304-4.136-9.073-14.651,3.176-14.233c4.702,5.247,6.999,14.375,6.632,22.056
			C377.146,252.765,379.444,243.181,374.179,243.075z"/>
		<path class="st0" d="M494.243,117.479c-17.749,12.656-11.066-2.94-0.499-9.331C503.599,103.387,499.538,113.043,494.243,117.479z"
			/>
		<path class="st0" d="M144.926,445.632c-3.659,6.714-18.586,8.828-15.905-1.862C132.442,436.517,141.455,441.243,144.926,445.632z"
			/>
		<path class="st0" d="M439.135,145.113c-1.151,12.677-16.353,7.044-11.575-3.464c2.183-4.712,6.318-6.067,10.623-1.613
			C437.659,141.886,436.405,143.873,439.135,145.113z"/>
		<path class="st0" d="M270.505,230.945c0.312-12.888,17.577,1.883,12.318,10.04C275.66,241.676,274.404,234.252,270.505,230.945z"
			/>
		<path class="st0" d="M91.147,297.902c1.41-16.446,23.465,3.972,6.131,3.71C94.707,301.481,90.958,302.816,91.147,297.902z"/>
		<path class="st0" d="M498.409,576.928c-0.101,3.374-0.202,6.748-0.303,10.122C487.467,597.035,487.698,564.288,498.409,576.928z"
			/>
		<path class="st0" d="M693.92,459.86c-1.076,11.722-15.545,10.926-16.278-0.287C677.13,451.299,693.685,450.521,693.92,459.86z"/>
		<path class="st0" d="M610.638,539.194c10.213-2.621,9.174,14.674,0.842,14.614C603.382,554.201,599.588,537.025,610.638,539.194z"
			/>
	</g>
	<g>
		<path class="st0" d="M545.462,294.255c-0.003,0.048,0.062,0.054,0.095,0.081C545.557,294.337,545.462,294.255,545.462,294.255z"/>
		<path class="st0" d="M664.336,465.038c-0.294-4.547-2.586-6.612-7.22-6.814c-20.819-1.252-83.617-35.594-79.058-58.787
			c1.323-9.567,14.096-15.355,6.277-25.129c-10.826-7.538-9.1-20.468-13.012-30.874c-6.432-25.08,32.005,6.569,27.106-29.014
			c-21.712-19.76-24.877,15.689-35.486,4.905c-6.503-3.327-14.89-4.111-14.06-12.487c-1.415-12.087-9.988-19.553-18.782-25.189
			c-20.887-6.087-32.382-25.795-53.763-30.715c-4.669-2.173-13.582-2.279-6.802-11.746c1.908-10.747-21.715-4.724-13.496,4.463
			c14.836,18.077-65.711,18.918-77.02,17.058c-10.223,0.836-16.23,12.561-27.695,10.576c-27.287-2.223-15.487,31.165-35.442,30.371
			c-5.403,5.835-0.655,15.254-11.261,21.056c-31.233,29.923-42.559-3.367-67.358,14.314c4.494,24.937,42.678-0.612,38.212,30.505
			c-1.909,6.377,4.417,15.667,0.245,17.411c-7.583,4.406-12.044,8.573-8.708,19.672c3.071,10.214-8.619,9.438-15.268,10.567
			c-7.986-0.207-20.588,0.96-21.384,11.382c12.854,11.92,21.9-13.569,33.705,20.706c3.519,14.315,29.829,1.722,21.122,21.088
			c-5.125,14.744,1.422,25.102,12.646,33.726c5.862,11.143,5.521,28.691,21.364,31.53c50.736,25.712-2.104,26.446,82.186,42.061
			c24.188,15.064,26.811-9.67,43.298-10.952c3.442,0.372,7.594-3.141,10.182,1.871c19.241,2.591,49.518-21.447,58.277,4.67
			c5.92,4.015,6.405,11.211,9.284,16.873c6.898,14.743,31.001,11.514,25.787-5.537c3.738-18.973-16.597-36.403-9.401-53.585
			c11.769-12.956,4.756-39.017,27.899-41.015c3.403-21.019,38.42,5.054,27.109-18.349c-15.214-13.122,16.167-2.749,21.045,3.617
			c6.216,5.744,13.844,7.41,20.77,4.093C644.102,468.968,667.173,473.908,664.336,465.038z"/>
	</g>
</g>
</svg>
